<svg width="34" height="34" viewBox="0 0 34 34" fill="none" xmlns="http://www.w3.org/2000/svg">
<path d="M17 0C7.616 0 0 7.616 0 17C0 26.384 7.616 34 17 34C26.384 34 34 26.384 34 17C34 7.616 26.384 0 17 0ZM17 30.6C9.503 30.6 3.4 24.497 3.4 17C3.4 9.503 9.503 3.4 17 3.4C24.497 3.4 30.6 9.503 30.6 17C30.6 24.497 24.497 30.6 17 30.6ZM18.513 15.47C15.487 14.467 14.025 13.838 14.025 12.24C14.025 10.506 15.912 9.877 17.102 9.877C19.329 9.877 20.145 11.56 20.332 12.155L23.018 11.016C22.763 10.268 21.624 7.769 18.496 7.225V5.1H15.521V7.242C11.101 8.194 11.067 12.087 11.067 12.274C11.067 16.133 14.892 17.221 16.762 17.901C19.448 18.853 20.638 19.72 20.638 21.352C20.638 23.273 18.853 24.089 17.272 24.089C14.178 24.089 13.294 20.91 13.192 20.536L10.37 21.675C11.441 25.398 14.246 26.401 15.504 26.707V28.9H18.479V26.792C19.363 26.639 23.613 25.789 23.613 21.318C23.63 18.955 22.593 16.881 18.513 15.47Z" fill="#23B2EE"/>
</svg>
